<svg width="19" height="22" viewBox="0 0 19 22" fill="none" xmlns="http://www.w3.org/2000/svg">
<path d="M6.78563 4.11442C6.42568 4.11442 6.08048 4.25951 5.82596 4.51777C5.57144 4.77603 5.42845 5.1263 5.42845 5.49154C5.42845 5.85677 5.57144 6.20705 5.82596 6.46531C6.08048 6.72356 6.42568 6.86865 6.78563 6.86865L14.3669 6.86865L12.612 8.64926C12.3648 8.90899 12.228 9.25685 12.2311 9.61793C12.2342 9.979 12.3769 10.3244 12.6286 10.5797C12.8802 10.8351 13.2206 10.9799 13.5764 10.983C13.9323 10.9862 14.2751 10.8474 14.5311 10.5965L18.6026 6.46516C18.8571 6.20691 19 5.8567 19 5.49154C19 5.12638 18.8571 4.77617 18.6026 4.51792L14.5311 0.386572C14.2751 0.13572 13.9323 -0.00308581 13.5764 5.18215e-05C13.2206 0.00318945 12.8802 0.148019 12.6286 0.403348C12.3769 0.658676 12.2342 1.00407 12.2311 1.36515C12.228 1.72622 12.3648 2.07409 12.612 2.33381L14.3669 4.11442L6.78563 4.11442ZM12.2144 17.8856C12.5743 17.8856 12.9195 17.7405 13.174 17.4822C13.4286 17.224 13.5716 16.8737 13.5716 16.5085C13.5716 16.1432 13.4286 15.793 13.174 15.5347C12.9195 15.2764 12.5743 15.1313 12.2144 15.1313L4.63314 15.1313L6.38798 13.3507C6.6352 13.091 6.77199 12.7431 6.7689 12.3821C6.76581 12.021 6.62308 11.6756 6.37144 11.4203C6.11981 11.1649 5.77941 11.0201 5.42356 11.017C5.06771 11.0138 4.72489 11.1526 4.46892 11.4035L0.397365 15.5348C0.142932 15.7931 1.2017e-06 16.1433 1.18574e-06 16.5085C1.16978e-06 16.8736 0.142932 17.2238 0.397365 17.4821L4.46892 21.6134C4.72489 21.8643 5.06771 22.0031 5.42356 21.9999C5.77941 21.9968 6.11981 21.852 6.37144 21.5966C6.62308 21.3413 6.76581 20.9959 6.7689 20.6348C6.77199 20.2738 6.6352 19.9259 6.38798 19.6662L4.63314 17.8856L12.2144 17.8856Z" fill="white"/>
</svg>
