<svg width="10" height="8" viewBox="0 0 10 8" fill="none" xmlns="http://www.w3.org/2000/svg">
<path fill-rule="evenodd" clip-rule="evenodd" d="M4.81681 7.83254C4.6996 7.93977 4.54065 8 4.37492 8C4.2092 8 4.05025 7.93977 3.93304 7.83254L0.182994 4.40091C0.0658229 4.29365 0 4.1482 0 3.99655C0 3.84489 0.0658229 3.69944 0.182994 3.59219L3.93304 0.16055C4.05092 0.0563667 4.2088 -0.0012815 4.37268 2.16208e-05C4.53655 0.00132474 4.69331 0.061475 4.80919 0.167517C4.92507 0.273559 4.99081 0.417009 4.99223 0.566969C4.99365 0.71693 4.93066 0.861403 4.81681 0.969272L2.13365 3.42461H9.37499C9.54075 3.42461 9.69973 3.48487 9.81694 3.59212C9.93415 3.69938 10 3.84486 10 3.99655C10 4.14823 9.93415 4.29371 9.81694 4.40097C9.69973 4.50823 9.54075 4.56849 9.37499 4.56849H2.13365L4.81681 7.02382C4.93398 7.13108 4.9998 7.27653 4.9998 7.42818C4.9998 7.57984 4.93398 7.72529 4.81681 7.83254Z" fill="#46B9FF"/>
</svg>
