<svg width="66" height="66" viewBox="0 0 66 66" fill="none" xmlns="http://www.w3.org/2000/svg">
<circle cx="33" cy="33" r="33" fill="#E4E8EB"/>
<path d="M66 33C66 39.8951 63.8402 46.6171 59.8239 52.2218C55.8077 57.8265 50.1367 62.0323 43.6075 64.2487C37.0783 66.4651 30.0188 66.5806 23.4206 64.579C16.8224 62.5775 11.0168 58.5594 6.81934 53.0891C2.62185 47.6189 0.243271 40.9712 0.0176686 34.0797C-0.207934 27.1883 1.73077 20.3993 5.5615 14.6662C9.39223 8.93309 14.9226 4.54392 21.3757 2.1151C27.8289 -0.313707 34.8808 -0.660144 41.541 1.12445L33 33H66Z" fill="#37AEFF"/>
<circle cx="33" cy="33" r="26" fill="#F1F3F5"/>
</svg>
