<svg width="271" height="274" fill="none" xmlns="http://www.w3.org/2000/svg"><path fill-rule="evenodd" clip-rule="evenodd" d="M48.729 43.18C44.454 20.953 61.552.435 83.779.435c19.663 0 35.906 16.243 35.906 35.906v44.454c5.129 0 10.258-.855 15.388-.855 5.129 0 9.403 0 14.533.855V36.34c0-19.663 16.243-35.906 35.905-35.906 22.227 0 39.325 20.518 35.905 42.745l-9.403 52.148C245.353 109.861 271 135.508 271 167.14v19.662c0 26.502-17.098 48.729-41.89 63.262C204.319 265.451 171.833 274 135.073 274c-36.76 0-69.247-8.549-94.038-23.937C17.098 235.53 0 213.303 0 186.801v-19.662c0-31.631 24.792-57.278 58.133-71.81l-9.404-52.15zm150.46 58.987l11.114-61.552c2.565-15.388-8.549-29.921-24.792-29.921-13.678 0-24.792 11.114-24.792 24.792v56.423c-3.419-.855-7.694-.855-11.113-.855-5.13 0-9.404-.855-14.533-.855-5.13 0-10.259 0-15.388.855-3.42 0-7.694.855-11.114.855V36.34c0-13.678-11.114-24.792-24.792-24.792-15.388 0-27.356 14.533-23.937 29.921l11.114 61.552C35.05 116.7 11.114 140.637 11.114 167.994v19.662c0 41.89 55.567 76.085 123.959 76.085 68.391 0 123.959-34.195 123.959-76.085v-19.662c.854-28.212-23.082-52.149-59.843-65.827z" fill="#20DCCB"/><path fill-rule="evenodd" clip-rule="evenodd" d="M82.71 7C67.133 7 55.016 21.88 58.478 37.635l12.117 63.021c-36.35 14.005-60.584 38.513-60.584 66.522 0 42.889 56.257 77.901 125.495 77.901 69.239 0 125.495-35.012 125.495-77.901 0-28.009-25.099-52.517-61.449-66.522l11.251-63.02C213.399 21.88 201.282 7 185.703 7c-13.848 0-25.099 11.379-25.099 25.383v57.77c-8.655-.876-17.309-1.751-25.964-1.751-9.521 0-18.175.875-26.83 1.75V32.384C107.81 18.38 96.558 7 82.71 7zm113.38 154.051c0 11.379-6.059 21.007-13.848 21.007-7.789 0-13.848-9.628-13.848-21.007 0-11.379 6.059-21.007 13.848-21.007 7.789 0 13.848 9.628 13.848 21.007zm-96.069 0c0 11.379-6.058 21.007-13.847 21.007-7.79 0-13.848-9.628-13.848-21.007 0-11.379 6.058-21.007 13.848-21.007 7.79 0 13.847 9.628 13.847 21.007z" fill="#20DCCB"/><path fill="#20DCCB" d="M97 26h17v69H97z"/></svg>